<?xml version="1.0" encoding="utf-8"?>
<svg version="1.1" id="Layer_1" xmlns="http://www.w3.org/2000/svg" xmlns:xlink="http://www.w3.org/1999/xlink" x="0px" y="0px"
   viewBox="0 0 83.4 45" enable-background="new 0 0 83.4 45" xml:space="preserve" fill="#333">
<g>
  <path d="M35.9,10.1c-0.2-0.2-0.5-0.4-0.7-0.6c-2.2-2-2.3-4.9-0.1-7c1.4-1.3,3-2,4.9-2.3c2.8-0.5,5.5-0.1,8,1.5
    c1.4,0.9,2.4,2,2.6,3.7c0.3,1.9-0.6,3.3-2,4.4c-0.2,0.1-0.3,0.2-0.4,0.3c0.3,0.9,0.5,1.7,0.8,2.6c0.1,0.4,0.3,0.6,0.6,0.8
    c5.1,2.7,8.1,6.8,9,12.4c1.2,7.6-2.9,14.6-9.5,17.7c-8.9,4.1-19.3-0.2-22.7-9.4c-0.1-0.2-0.3-0.4-0.4-0.5c-0.1,0.2-0.3,0.4-0.4,0.6
    c-0.5,2.2-1.4,4.2-3,5.9c-2.7,2.9-6.3,3.6-10.2,2c-3.3-1.3-5.7-3.7-7.7-6.5c-2.4-3.4-3.9-7.3-4.4-11.4c-0.5-3.8-0.2-7.5,1.7-11
    c1.5-2.7,3.6-4.6,6.8-5c2.4-0.3,4.6,0.3,6.7,1.5c3.9,2.2,6.5,5.6,8.3,9.6c0.7,1.4,1.1,3,1.6,4.5c0.1,0.2,0.2,0.3,0.3,0.4
    c0.1-0.1,0.4-0.3,0.4-0.4c1.4-4.7,4.3-8.1,8.6-10.4c0.2-0.1,0.4-0.4,0.5-0.6C35.4,11.9,35.6,11,35.9,10.1z M23.4,28.9
    c0-3.8-1.2-7.8-3.4-11.1c-1.6-2.4-3.5-4.4-6.1-5.6c-3.3-1.5-6.6-0.9-8.9,1.9c-1.4,1.7-2.1,3.8-2.3,6C2.3,24,3.1,27.8,4.9,31.3
    c1.6,3.1,3.7,5.6,6.8,7.2c4,2.1,8.1,0.8,10.2-3.1C23.1,33.4,23.5,31.2,23.4,28.9z M42,14.2c-8.1,0.2-14.3,6.5-14.1,14.5
    c0.2,7.9,6.8,14.1,14.8,13.7c7.5-0.3,13.6-6.5,13.5-14.4C56.1,20.3,49.6,14.1,42,14.2z M43.4,10.8c0.4-0.5,0.8-0.8,1.2-1.2
    c0.1-0.1,0.3-0.3,0.5-0.3c0.6,0,1.2,0,1.8,0c0.2,0,0.4,0,0.5-0.1c2.3-1.5,2.5-4.4,0.5-6.2c-1.6-1.5-3.5-2-5.6-2.1
    c-2.2,0-4.3,0.4-6,1.9c-2.1,1.9-2,4.7,0.4,6.4c0.1,0.1,0.3,0.2,0.5,0.2c0.6,0,1.1,0,1.7-0.1c0.4,0,0.6,0.1,0.8,0.4
    c0.3,0.4,0.7,0.7,1.1,1.1c0.1-0.3,0.2-0.5,0.1-0.5c-0.8-0.5-1.1-1.8-2.4-1.6c-0.5,0.1-1-0.2-1.1-0.8c-0.1-0.6,0-1.3,0-1.9
    c0-0.5,0.3-0.8,0.9-0.8c0.2,0,0.5-0.1,0.7-0.3c1.8-1.5,4.4-1.6,6.2,0c0.2,0.1,0.4,0.3,0.6,0.3c0.7,0.1,1,0.3,1,1c0,0.5,0,1,0,1.5
    s-0.4,1-0.9,1c-0.2,0-0.5,0-0.7,0c-0.4,0-1.8,1.4-1.9,1.8C43.3,10.6,43.3,10.6,43.4,10.8z"/>
  <path d="M22.2,28.5c0,1.9-0.3,3.8-1.2,5.6c-1.9,3.6-5.5,4.8-9.1,2.9c-2.8-1.4-4.7-3.8-6.1-6.6c-1.2-2.3-1.8-4.9-1.9-7.5
    c-0.1-2.1,0.3-4.2,1.3-6.1c1.9-3.5,5.5-4.6,9.1-2.8c2.7,1.4,4.6,3.6,6,6.2C21.5,22.8,22.2,25.6,22.2,28.5z"/>
  <path d="M42.4,15.1c7.5,0.2,13.2,6.5,12.9,13.8C55,36.3,48.7,42,41.4,41.6c-7.2-0.3-13-6.6-12.6-13.8
    C29.1,20.4,35.3,14.9,42.4,15.1z M29.5,28.4c0.1,7,5.7,12.6,12.6,12.5s12.4-5.8,12.4-12.6s-5.8-12.7-13-12.5
    C35,16,29.4,21.8,29.5,28.4z"/>
  <path d="M41.6,17.7c0.2-0.4-0.1-1,0.5-1c0.2,0,0.3,0.5,0.5,0.8c1.1,0.3,2.4,0.5,3.5,1s2.2,1.2,3.2,1.9c0.3,0,0.5-0.8,1-0.3
    c0.1,0.1-0.2,0.6-0.3,1.1c1.6,1.8,2.6,4.1,2.7,6.5c0.4,0.3,0.7,0.5,1,0.6c-0.3,0.2-0.6,0.4-1,0.6c-0.2,2.4-1.1,4.7-2.7,6.5
    c0.1,0.5,0.2,0.8,0.3,1.2c-0.3-0.1-0.7-0.2-1.1-0.3c-1.8,1.6-4,2.6-6.5,2.7c-0.2,0.4-0.4,0.7-0.6,1c-0.2-0.3-0.4-0.6-0.6-1
    c-2.4-0.1-4.7-1.1-6.5-2.7c-0.5,0.1-0.8,0.2-1.2,0.3c0.1-0.3,0.2-0.7,0.3-1.1c-1.6-1.8-2.5-4.1-2.7-6.6c-0.3-0.2-1,0.1-1-0.5
    c0-0.2,0.5-0.3,1-0.6c0.1-2.4,1.1-4.7,2.7-6.5c-0.1-0.5-0.2-0.8-0.3-1.2c0.3,0.1,0.7,0.2,1.2,0.3C36.7,18.8,39,17.8,41.6,17.7z
     M41.4,38.7c0.3-0.4,0.4-0.7,0.6-0.9c0.2,0.3,0.4,0.6,0.6,0.9c2.1,0,5.2-1.3,6.3-2.6c-0.1-0.4-0.4-0.9-0.2-1c0.4-0.5,0.6,0.2,1,0.3
    c1.7-1.9,2.6-4,2.7-6.4c-0.4-0.2-0.7-0.4-0.9-0.6c0.3-0.2,0.6-0.4,0.9-0.6c-0.1-2.4-1-4.5-2.6-6.3c-0.5,0.1-0.8,0.2-1.1,0.3
    c0.1-0.3,0.1-0.7,0.2-1.1C47.2,19,45,18.1,42.5,18c0,0.1,0.1,0.1,0.1,0.2c-0.2,0.3-0.3,0.5-0.5,0.8c-0.2-0.3-0.4-0.6-0.7-1
    c-2.3,0.1-4.5,1-6.3,2.6c0.1,0.4,0.2,0.8,0.3,1.1c-0.3-0.1-0.7-0.1-1.1-0.2c-1.5,1.7-2.5,3.9-2.6,6.3c0.4,0.2,0.6,0.4,0.9,0.6
    c-0.3,0.2-0.5,0.4-0.9,0.7c0.1,2.3,1,4.5,2.6,6.2c0.5-0.1,0.8-0.2,1.1-0.3c-0.1,0.3-0.2,0.7-0.3,1.1C36.9,37.7,39.1,38.6,41.4,38.7
    z"/>
</g>
<g>
  <polygon points="41.1,27.4 39.6,25.7 39.6,25.6 39.6,25.1 40,25.3 41.8,26.9 42.4,28.2 46.6,33.3 47.3,33.7 47.8,34.8 46.8,34.2 
    46.4,33.4 42.2,28.3">
      <animateTransform
        attributeName="transform"
        dur="2s"
        type="rotate"
        from="0 42.2 28.1"
        by="0 10 0"
        to="360 42.2 28.1"
        dx="1"
        dy="1"
        repeatCount="indefinite"
      />
    </polygon>
  <polygon points="43,27.6 49.6,29.7 42.8,28.7 41.1,28.4 40.9,27.9 41.2,27.1 41.8,26.9 	">
    <animateTransform
      attributeName="transform"
      dur="6s"
      type="rotate"
      from="0 42.2 28.1"
      by="0 10 0"
      to="360 42.2 28.1"
      dx="1"
      dy="1"
      repeatCount="indefinite"
    />
  </polygon>
  <polygon points="41.1,28.4 38.2,32.7 38.3,32.8 42.6,28.8 43.2,27.9 41.8,26.9 	">
    <animateTransform
      attributeName="transform"
      dur="10s"
      type="rotate"
      from="0 42.2 28.1"
      by="0 10 0"
      to="360 42.2 28.1"
      dx="1"
      dy="1"
      repeatCount="indefinite"
    />
  </polygon>
</g>
<g>
  <path d="M46.2,28.6c-0.1,0.4-0.5,1.1-0.7,1.4c0.1-0.3,0.4-1,0.5-1.4 M46,28.6C46.1,28.6,45.9,28.6,46,28.6c0-0.7-0.1-1.5-0.2-2.2
    c0.1,0.5,0.3,1,0.3,1.5l0.1,0.7"/>
  <path d="M38.6,25.1c-1.1,1.5-1.2,3.2-0.4,4.9c-0.1-0.1-0.2-0.2-0.3-0.3c-0.7-1.5-0.6-3,0.3-4.4C38.3,25.2,38.5,25.1,38.6,25.1z"/>
  <path d="M44.2,24.1c-0.4-0.2-0.9-0.4-1.3-0.5c-1.2-0.3-2.3,0-3.3,0.5c0.5-0.2,0.9-0.6,1.4-0.7C42.2,23.2,43.3,23.4,44.2,24.1z"/>
  <path d="M45.4,30.2c-1.7,2.9-6.1,2.1-7,0.1c1.6,2.1,4.9,2.2,7,0.1"/>
</g>
</svg>
